<svg width="75" height="25" viewBox="0 0 75 25" fill="none" xmlns="http://www.w3.org/2000/svg">
<path d="M54.9369 11.0035H50.9243V13.003H52.9306V18.0018H51.9274V19.0015H50.9243V20.0013H56.9432V19.0015H55.9401V18.0018H54.9369V17.002H55.9401V16.0023H54.9369V15.0025H55.9401V13.003H56.9432V12.0033H58.9495V19.0015H57.9464V20.0013H63.9653V19.0015H61.959V12.0033H60.9558V11.0035H55.9401V12.0033H54.9369V11.0035Z" fill="#E23A5E"/>
<path d="M63.9653 12.0033V11.0035H68.9811V12.0033H67.9779V14.0028H68.9811V15.0025H69.9842V17.002H70.9874V15.0025H71.9905V12.0033H70.9874V11.0035H75V12.0033H73.9968V14.0028H72.9937V16.0023H71.9905V18.0018H70.9874V20.0013H69.9842V22.0008H68.9811V24.0003H67.9779V25H64.9685V23.0005H66.9748V22.0008H67.9779V21.001H68.9811V19.0015H67.9779V17.002H66.9748V15.0025H65.9716V14.0028H64.9685V12.0033H63.9653Z" fill="#E23A5E"/>
<path d="M38.0062 11.0035H36.0035V12.0012H38.0062V19.9824H43.0128V18.9847H44.0141V17.9871H42.0114V18.9847H41.0101V17.9871H40.0088V16.9894H41.0101V13.9965H40.0088V12.0012H44.0141V11.0035H40.0088V10.0059H41.0101V8.01056H39.0075V10.0059H38.0062V11.0035Z" fill="#E23A5E"/>
<path d="M46.0094 8.01056V5.01761H49.0023V8.01056H46.0094Z" fill="#E23A5E"/>
<path d="M45.0117 11.0035H49.0023V18.9847H50V19.9824H44.0141V18.9847H46.0094V12.9988H44.0141V12.0012H45.0117V11.0035Z" fill="#E23A5E"/>
<path d="M0 17.9842H2.00631V18.9833H5.01577V17.9842H6.01893V7.99296H7.02208V5.99472H6.01893V4.9956H4.01262V5.99472H3.00946V6.99384H2.00631V7.99296H5.01577V9.9912H4.01262V10.9903H2.00631V9.9912H1.00315V5.99472H2.00631V4.9956H3.00946V3.99648H9.02839V4.9956H10.0315V5.99472H11.0347V7.99296H12.0379V9.9912H13.041V10.9903H14.0442V8.99208H15.0473V7.99296H16.0505V5.99472H17.0536V3.99648H18.0568V2.99736H19.0599V0.99912H21.0662V0H23.0725V0.99912H24.0757V1.99824H22.0694V0.99912H21.0662V1.99824H20.0631V13.9877H21.0662V18.9833H22.0694V19.9824H18.0568V18.9833H17.0536V8.99208H16.0505V9.9912H15.0473V11.9894H14.0442V13.9877H13.041V15.9859H11.0347V13.9877H10.0315V11.9894H9.02839V8.99208H8.02523V14.9868H7.02208V17.9842H6.01893V18.9833H5.01577V19.9824H1.00315V18.9833H0V17.9842Z" fill="#E23A5E"/>
<path d="M22.9313 11.0035H26.9536V17.9871H27.9591V18.9847H29.9702V17.9871H30.9758V12.0012H28.9647V11.0035H33.9924V18.9847H36.0035V19.9824H30.9758V18.9847H29.9702V19.9824H24.9424V17.9871H23.9369V13.9965H24.9424V12.9988H23.9369V12.0012H22.9313V11.0035Z" fill="#E23A5E"/>
</svg>
